# xmcd CD database file
#
# Track frame offsets:
#	150
#	16047
#	37640
#	54778
#	70178
#	91218
#	116190
#	134127
#	164867
#	182139
#	210624
#	236123
#	250840
#	267442
#	297892
#	316700
#
# Disc length: 4426 seconds
#
# Revision: 0
# Processed by: cddbd v1.5.2PL0 Copyright (c) Steve Scherf et al.
# Submitted via: CDex 1.51
#
DISCID=e3114810
DTITLE=Billie Holiday - Kind Of Holiday [CD4] - Billie Holiday and Her Orchestra
DYEAR=2009
DGENRE=Jazz
TTITLE0=Cheek To Cheek (Berlin)
TTITLE1=Sophisticated Lady (Ellington/Parish/Mills)
TTITLE2=Moonlight In Vermont (Suessdorf/Blackburn)
TTITLE3=I Wished On The Moon (Parker/Rainger)
TTITLE4=A Foggy Day (Gershwin)
TTITLE5=Just One Of Those Things (Porter)
TTITLE6=Comes Love (Brown/Tobias/Stept)
TTITLE7=Day In, Day Out (Mercer/Bloom)
TTITLE8=But Not For Me (Gershwin)
TTITLE9=Body And Soul (Green/Sour/Heyman/Eyton)
TTITLE10=One For My Baby (And One For The Road) (Mercer/Arlen)
TTITLE11=Say It Isn't So (Berlin)
TTITLE12=Love Is Here To Stay (Gershwin)
TTITLE13=Embraceable You (Gershwin)
TTITLE14=They Can't Take That Away From Me (Gershwin)
TTITLE15=Let's Call The Whole Thing Off (Gershwin)
EXTD=YEAR: 2009
EXTT0=
EXTT1=
EXTT2=
EXTT3=
EXTT4=
EXTT5=
EXTT6=
EXTT7=
EXTT8=
EXTT9=
EXTT10=
EXTT11=
EXTT12=
EXTT13=
EXTT14=
EXTT15=
PLAYORDER=
